# xmcd CD database file
#
# Track frame offsets:
#	150
#	14472
#	25554
#	34945
#	47746
#	57748
#	69519
#	87305
#	99102
#	113524
#	123130
#	132647
#
# Disc length: 1914 seconds
#
# Revision: 0
# Processed by: cddbd v1.5.2PL0 Copyright (c) Steve Scherf et al.
# Submitted via: CDex 1.51
#
DISCID=9907780c
DTITLE=Various Artist - Williams Sonoma Collection - It's the Most Wonderful Time of the Year
DYEAR=1900
DGENRE=Jazz
TTITLE0=The Christmas Song (Merry Christmas To You) - Nat King Cole
TTITLE1=Let It Snow! Let It Snow! Let It Snow! - Lena Horne
TTITLE2=I Like a Sleighride (Jingle Bells) - Peggy Lee
TTITLE3=Baby, It's Cold Outside - Johnny Mercer and Margaret Whiting
TTITLE4=Frosty the Snowman - Bing Crosby
TTITLE5=It's the Most Wonderful Time of the Year - Andy Williams
TTITLE6=White Christmas - Mel Torme
TTITLE7=I'd Like You for Christmas - Julie London
TTITLE8=Silver Bells - Wayne Newton
TTITLE9=The Merriest - June Christy
TTITLE10=We Three Kings - Ella Fitzgerald
TTITLE11=What Are You Doing New Years Eve? - Nancy Wilson
EXTD=
EXTT0=
EXTT1=
EXTT2=
EXTT3=
EXTT4=
EXTT5=
EXTT6=
EXTT7=
EXTT8=
EXTT9=
EXTT10=
EXTT11=
PLAYORDER=
